<?xml version="1.0" encoding="utf-8"?>
<!-- Generator: Adobe Illustrator 16.0.3, SVG Export Plug-In . SVG Version: 6.00 Build 0)  -->
<!DOCTYPE svg PUBLIC "-//W3C//DTD SVG 1.1//EN" "http://www.w3.org/Graphics/SVG/1.1/DTD/svg11.dtd">
<svg version="1.1" id="Layer_1" xmlns="http://www.w3.org/2000/svg" xmlns:xlink="http://www.w3.org/1999/xlink" x="0px" y="0px"
	 width="240px" height="160px" viewBox="0 0 240 160" enable-background="new 0 0 240 160" xml:space="preserve">
<path d="M15.157,63.32h9.019c0.901,0,1.75,0.158,2.547,0.474c0.797,0.315,1.488,0.744,2.074,1.285
	c0.587,0.542,1.045,1.195,1.376,1.962c0.33,0.767,0.496,1.601,0.496,2.502v7.937c0,0.902-0.166,1.744-0.496,2.525
	c-0.331,0.782-0.789,1.466-1.376,2.052c-0.586,0.586-1.277,1.053-2.074,1.397c-0.797,0.347-1.646,0.519-2.547,0.519h-4.961v15.422
	h-4.058V63.32z M19.215,67.378v12.536h4.961c0.721,0,1.308-0.226,1.758-0.677c0.451-0.451,0.677-1.037,0.677-1.758v-7.937
	c0-0.691-0.226-1.225-0.677-1.601c-0.45-0.375-1.037-0.564-1.758-0.564H19.215z"/>
<path d="M32.473,91.504c0-1.143,0.112-2.074,0.338-2.797c0.226-0.721,0.533-1.322,0.924-1.803s0.864-0.864,1.421-1.15
	c0.556-0.285,1.149-0.549,1.781-0.789l6.268-1.895v-3.381c0-0.48-0.083-0.849-0.248-1.105c-0.165-0.255-0.376-0.443-0.631-0.563
	c-0.256-0.12-0.557-0.195-0.902-0.226c-0.346-0.029-0.698-0.045-1.06-0.045c-0.722,0-1.375,0.113-1.961,0.338
	c-0.587,0.225-0.88,0.759-0.88,1.601v0.902h-4.059v-0.902c0-1.021,0.203-1.909,0.609-2.661c0.405-0.751,0.938-1.375,1.601-1.871
	c0.661-0.496,1.397-0.864,2.21-1.105c0.812-0.24,1.638-0.361,2.479-0.361s1.676,0.121,2.503,0.361
	c0.826,0.241,1.563,0.609,2.209,1.105s1.173,1.12,1.579,1.871c0.405,0.752,0.608,1.639,0.608,2.661v19.706h-4.059v-2.796
	c-0.752,0.602-1.519,1.143-2.3,1.623c-0.661,0.422-1.36,0.797-2.097,1.128c-0.737,0.33-1.405,0.496-2.007,0.496
	c-1.202,0-2.225-0.422-3.066-1.263c-0.842-0.842-1.262-1.863-1.262-3.066V91.504z M36.53,93.713c0,0.631,0.053,1.127,0.158,1.488
	c0.104,0.36,0.248,0.541,0.429,0.541c0.24,0,0.69-0.165,1.353-0.496c0.661-0.33,1.337-0.706,2.029-1.127
	c0.812-0.48,1.713-1.008,2.705-1.578v-5.637l-5.32,1.668c-0.632,0.271-1.015,0.691-1.15,1.263c-0.135,0.571-0.203,1.353-0.203,2.345
	V93.713z"/>
<path d="M62.143,99.846h-2.795c-0.843,0-1.624-0.158-2.346-0.474c-0.721-0.315-1.353-0.744-1.894-1.285s-0.97-1.18-1.285-1.917
	c-0.315-0.735-0.474-1.51-0.474-2.322V78.156h-3.607v-4.013h3.607v-6.494h4.104v6.494h5.682v4.013h-5.682v15.692
	c0,0.603,0.181,1.075,0.541,1.421c0.361,0.346,0.842,0.519,1.443,0.519h2.57L62.143,99.846z"/>
<path d="M75.535,99.846H72.74c-0.843,0-1.624-0.158-2.346-0.474c-0.721-0.315-1.353-0.744-1.894-1.285s-0.97-1.18-1.285-1.917
	c-0.315-0.735-0.474-1.51-0.474-2.322V78.156h-3.607v-4.013h3.607v-6.494h4.104v6.494h5.682v4.013h-5.682v15.692
	c0,0.603,0.181,1.075,0.541,1.421c0.361,0.346,0.842,0.519,1.443,0.519h2.57L75.535,99.846z"/>
<path d="M87.575,95.787c0.602,0,1.074-0.173,1.421-0.519c0.345-0.346,0.519-0.818,0.519-1.421v-3.246h4.058v3.246
	c0,0.843-0.157,1.624-0.473,2.346c-0.316,0.721-0.744,1.353-1.285,1.894s-1.173,0.97-1.895,1.285s-1.503,0.474-2.345,0.474h-2.796
	c-0.842,0-1.623-0.158-2.345-0.474s-1.353-0.744-1.894-1.285s-0.97-1.173-1.285-1.894c-0.315-0.722-0.474-1.503-0.474-2.346V79.689
	c0-0.841,0.158-1.624,0.474-2.345c0.315-0.722,0.744-1.353,1.285-1.894s1.172-0.969,1.894-1.285
	c0.722-0.315,1.503-0.474,2.345-0.474h2.796c0.842,0,1.623,0.158,2.345,0.474c0.722,0.316,1.354,0.744,1.895,1.285
	s0.969,1.172,1.285,1.894c0.315,0.721,0.473,1.503,0.473,2.345v7.666H82.841v6.493c0,0.603,0.173,1.075,0.519,1.421
	c0.345,0.346,0.818,0.519,1.42,0.519H87.575z M89.515,83.297v-3.608c0-0.601-0.174-1.075-0.519-1.42
	c-0.347-0.345-0.819-0.519-1.421-0.519h-2.796c-0.602,0-1.075,0.173-1.42,0.519c-0.346,0.346-0.519,0.819-0.519,1.42v3.608H89.515z"
	/>
<path d="M108.588,79.869c0-0.631-0.053-1.127-0.157-1.488c-0.105-0.361-0.248-0.541-0.429-0.541c-0.241,0-0.691,0.158-1.353,0.473
	c-0.662,0.316-1.338,0.684-2.029,1.105c-0.812,0.481-1.714,1.022-2.705,1.623v18.354h-4.059V74.143h4.059v2.796
	c0.751-0.601,1.518-1.142,2.299-1.624c0.661-0.42,1.36-0.789,2.098-1.105c0.736-0.315,1.404-0.473,2.006-0.473
	c1.202,0,2.225,0.421,3.066,1.263c0.842,0.842,1.263,1.864,1.263,3.066v4.509h-4.059V79.869z"/>
<path d="M126.76,79.869c0-0.631-0.053-1.127-0.156-1.488c-0.107-0.361-0.248-0.541-0.43-0.541c-0.24,0-0.691,0.158-1.352,0.473
	c-0.662,0.316-1.338,0.684-2.029,1.105c-0.813,0.481-1.715,1.022-2.706,1.623v18.354h-4.059V74.143h4.059v2.796
	c0.751-0.601,1.517-1.142,2.3-1.624c0.66-0.42,1.359-0.796,2.096-1.127c0.736-0.331,1.406-0.496,2.008-0.496
	s1.164,0.113,1.691,0.338c0.525,0.226,0.984,0.541,1.375,0.947c0.391,0.406,0.699,0.873,0.924,1.398
	c0.227,0.526,0.338,1.09,0.338,1.691v21.329h-4.059V79.869z"/>
<path fill="#646464" d="M136.455,63.32h9.019c0.902,0,1.751,0.158,2.548,0.474c0.796,0.315,1.488,0.744,2.074,1.285
	c0.587,0.542,1.044,1.195,1.376,1.962c0.33,0.767,0.495,1.601,0.495,2.502v7.937c0,0.902-0.165,1.744-0.495,2.525
	c-0.332,0.782-0.789,1.466-1.376,2.052c-0.586,0.586-1.278,1.053-2.074,1.397c-0.797,0.347-1.646,0.519-2.548,0.519h-4.96v15.422
	h-4.059V63.32z M140.514,67.378v12.536h4.96c0.722,0,1.308-0.226,1.759-0.677c0.451-0.451,0.677-1.037,0.677-1.758v-7.937
	c0-0.691-0.226-1.225-0.677-1.601c-0.451-0.375-1.037-0.564-1.759-0.564H140.514z"/>
<path fill="#646464" d="M166.757,79.869c0-0.631-0.053-1.127-0.157-1.488c-0.106-0.361-0.248-0.541-0.429-0.541
	c-0.241,0-0.692,0.158-1.353,0.473c-0.662,0.316-1.338,0.684-2.029,1.105c-0.812,0.481-1.714,1.022-2.706,1.623v18.354h-4.058
	V74.143h4.058v2.796c0.751-0.601,1.518-1.142,2.3-1.624c0.661-0.42,1.36-0.789,2.097-1.105c0.736-0.315,1.405-0.473,2.007-0.473
	c1.202,0,2.225,0.421,3.066,1.263c0.841,0.842,1.263,1.864,1.263,3.066v4.509h-4.059V79.869z"/>
<path fill="#646464" d="M182.539,95.787c0.601,0,1.074-0.173,1.42-0.519s0.519-0.818,0.519-1.421v-3.246h4.059v3.246
	c0,0.843-0.157,1.624-0.474,2.346c-0.315,0.721-0.744,1.353-1.285,1.894s-1.172,0.97-1.894,1.285s-1.504,0.474-2.345,0.474h-2.796
	c-0.842,0-1.623-0.158-2.345-0.474s-1.353-0.744-1.894-1.285c-0.542-0.541-0.97-1.173-1.285-1.894
	c-0.316-0.722-0.474-1.503-0.474-2.346V79.689c0-0.841,0.157-1.624,0.474-2.345c0.315-0.722,0.743-1.353,1.285-1.894
	c0.541-0.541,1.172-0.969,1.894-1.285c0.722-0.315,1.503-0.474,2.345-0.474h2.796c0.841,0,1.623,0.158,2.345,0.474
	c0.722,0.316,1.353,0.744,1.894,1.285s0.97,1.172,1.285,1.894c0.316,0.721,0.474,1.503,0.474,2.345v7.666h-10.731v6.493
	c0,0.603,0.172,1.075,0.519,1.421c0.345,0.346,0.818,0.519,1.42,0.519H182.539z M184.478,83.297v-3.608
	c0-0.601-0.173-1.075-0.519-1.42c-0.346-0.345-0.819-0.519-1.42-0.519h-2.796c-0.602,0-1.075,0.173-1.42,0.519
	c-0.347,0.346-0.519,0.819-0.519,1.42v3.608H184.478z"/>
<path fill="#646464" d="M195.977,80.591c0,0.241,0.263,0.608,0.789,1.104c0.525,0.496,1.104,1,1.736,1.511
	c0.751,0.571,1.578,1.188,2.479,1.849c1.082,0.722,2.044,1.488,2.886,2.3c0.722,0.692,1.376,1.474,1.962,2.345
	c0.586,0.873,0.879,1.744,0.879,2.615v1.533c0,0.813-0.157,1.587-0.473,2.322c-0.316,0.737-0.744,1.376-1.285,1.917
	s-1.173,0.97-1.895,1.285s-1.503,0.474-2.345,0.474h-2.796c-0.842,0-1.623-0.158-2.345-0.474s-1.353-0.744-1.894-1.285
	s-0.97-1.18-1.285-1.917c-0.315-0.735-0.474-1.51-0.474-2.322v-4.013h4.059v4.013c0,0.603,0.173,1.075,0.519,1.421
	c0.345,0.346,0.818,0.519,1.42,0.519h2.796c0.602,0,1.074-0.173,1.421-0.519c0.345-0.346,0.519-0.818,0.519-1.421v-1.533
	c0-0.51-0.248-1.043-0.744-1.6s-1.045-1.061-1.646-1.512c-0.721-0.541-1.518-1.052-2.39-1.533c-1.112-0.691-2.104-1.428-2.976-2.209
	c-0.752-0.661-1.437-1.412-2.052-2.255c-0.617-0.841-0.925-1.714-0.925-2.615v-0.902c0-0.841,0.158-1.624,0.474-2.345
	c0.315-0.722,0.744-1.353,1.285-1.894s1.172-0.969,1.894-1.285c0.722-0.315,1.503-0.474,2.345-0.474h2.796
	c0.842,0,1.623,0.158,2.345,0.474c0.722,0.316,1.354,0.744,1.895,1.285s0.969,1.172,1.285,1.894
	c0.315,0.721,0.473,1.503,0.473,2.345v0.902h-4.058v-0.902c0-0.601-0.174-1.075-0.519-1.42c-0.347-0.345-0.819-0.519-1.421-0.519
	h-2.796c-0.602,0-1.075,0.173-1.42,0.519c-0.346,0.346-0.519,0.819-0.519,1.42V80.591z"/>
<path fill="#646464" d="M214.374,80.591c0,0.241,0.263,0.608,0.789,1.104c0.525,0.496,1.104,1,1.736,1.511
	c0.751,0.571,1.578,1.188,2.479,1.849c1.082,0.722,2.044,1.488,2.886,2.3c0.722,0.692,1.376,1.474,1.962,2.345
	c0.586,0.873,0.879,1.744,0.879,2.615v1.533c0,0.813-0.157,1.587-0.473,2.322c-0.316,0.737-0.744,1.376-1.285,1.917
	s-1.173,0.97-1.895,1.285s-1.503,0.474-2.345,0.474h-2.796c-0.842,0-1.623-0.158-2.345-0.474s-1.353-0.744-1.894-1.285
	s-0.97-1.18-1.285-1.917c-0.315-0.735-0.474-1.51-0.474-2.322v-4.013h4.059v4.013c0,0.603,0.173,1.075,0.519,1.421
	c0.345,0.346,0.818,0.519,1.42,0.519h2.796c0.602,0,1.074-0.173,1.421-0.519c0.345-0.346,0.519-0.818,0.519-1.421v-1.533
	c0-0.51-0.248-1.043-0.744-1.6s-1.045-1.061-1.646-1.512c-0.721-0.541-1.518-1.052-2.39-1.533c-1.112-0.691-2.104-1.428-2.976-2.209
	c-0.752-0.661-1.437-1.412-2.052-2.255c-0.617-0.841-0.925-1.714-0.925-2.615v-0.902c0-0.841,0.158-1.624,0.474-2.345
	c0.315-0.722,0.744-1.353,1.285-1.894s1.172-0.969,1.894-1.285c0.722-0.315,1.503-0.474,2.345-0.474h2.796
	c0.842,0,1.623,0.158,2.345,0.474c0.722,0.316,1.354,0.744,1.895,1.285s0.969,1.172,1.285,1.894
	c0.315,0.721,0.473,1.503,0.473,2.345v0.902h-4.058v-0.902c0-0.601-0.174-1.075-0.519-1.42c-0.347-0.345-0.819-0.519-1.421-0.519
	h-2.796c-0.602,0-1.075,0.173-1.42,0.519c-0.346,0.346-0.519,0.819-0.519,1.42V80.591z"/>
</svg>
