<?xml version="1.0" encoding="utf-8"?>
<!-- Generator: Adobe Illustrator 16.0.3, SVG Export Plug-In . SVG Version: 6.00 Build 0)  -->
<!DOCTYPE svg PUBLIC "-//W3C//DTD SVG 1.1//EN" "http://www.w3.org/Graphics/SVG/1.1/DTD/svg11.dtd">
<svg version="1.1" id="Layer_1" xmlns="http://www.w3.org/2000/svg" xmlns:xlink="http://www.w3.org/1999/xlink" x="0px" y="0px"
	 width="240px" height="120px" viewBox="0 0 240 120" enable-background="new 0 0 240 120" xml:space="preserve">
<path d="M0,39.059h10.313c1.031,0,2.001,0.181,2.913,0.542c0.911,0.361,1.702,0.85,2.372,1.468c0.671,0.62,1.195,1.367,1.573,2.245
	c0.377,0.877,0.567,1.829,0.567,2.862v9.076c0,1.029-0.19,1.993-0.567,2.886c-0.378,0.896-0.902,1.678-1.573,2.348
	c-0.67,0.67-1.461,1.204-2.372,1.599c-0.912,0.396-1.882,0.594-2.913,0.594H4.641v17.636H0V39.059z M4.641,43.699v14.336h5.673
	c0.824,0,1.496-0.257,2.011-0.772c0.516-0.517,0.773-1.186,0.773-2.011v-9.076c0-0.791-0.258-1.401-0.773-1.831
	c-0.515-0.431-1.187-0.646-2.011-0.646H4.641z"/>
<path d="M19.802,71.29c0-1.307,0.128-2.372,0.386-3.198c0.258-0.824,0.61-1.513,1.057-2.063c0.446-0.548,0.988-0.986,1.625-1.315
	c0.635-0.326,1.314-0.626,2.037-0.902l7.168-2.166v-3.866c0-0.549-0.095-0.972-0.284-1.265c-0.188-0.29-0.429-0.506-0.721-0.644
	c-0.292-0.137-0.636-0.224-1.031-0.258c-0.396-0.034-0.799-0.052-1.212-0.052c-0.825,0-1.572,0.129-2.242,0.387
	c-0.671,0.258-1.006,0.869-1.006,1.831v1.031h-4.641v-1.031c0-1.168,0.232-2.183,0.697-3.044c0.463-0.857,1.073-1.571,1.831-2.139
	c0.756-0.568,1.598-0.988,2.527-1.264c0.928-0.274,1.873-0.412,2.835-0.412s1.917,0.138,2.863,0.412
	c0.945,0.275,1.787,0.695,2.526,1.264c0.739,0.567,1.341,1.281,1.805,2.139c0.464,0.861,0.696,1.876,0.696,3.044v22.535h-4.641
	v-3.197c-0.86,0.688-1.737,1.308-2.63,1.855c-0.756,0.482-1.556,0.912-2.398,1.291c-0.843,0.376-1.607,0.566-2.295,0.566
	c-1.375,0-2.544-0.482-3.507-1.443c-0.963-0.962-1.443-2.131-1.443-3.507V71.29z M24.442,73.815c0,0.722,0.061,1.289,0.181,1.703
	c0.12,0.41,0.284,0.618,0.491,0.618c0.274,0,0.789-0.188,1.546-0.568c0.756-0.377,1.529-0.807,2.321-1.288
	c0.928-0.55,1.958-1.152,3.093-1.805v-6.447l-6.084,1.908c-0.722,0.31-1.161,0.791-1.315,1.444
	c-0.154,0.652-0.232,1.547-0.232,2.683V73.815z"/>
<path d="M53.733,80.829h-3.196c-0.964,0-1.857-0.18-2.683-0.542c-0.824-0.36-1.547-0.851-2.166-1.47
	c-0.619-0.618-1.109-1.348-1.47-2.191c-0.361-0.842-0.542-1.727-0.542-2.655V56.025h-4.125v-4.591h4.125v-7.427h4.693v7.427h6.498
	v4.591H48.37v17.945c0,0.688,0.207,1.229,0.619,1.625c0.413,0.395,0.962,0.593,1.65,0.593h2.939L53.733,80.829z"/>
<path d="M69.049,80.829h-3.196c-0.964,0-1.857-0.18-2.683-0.542c-0.824-0.36-1.547-0.851-2.166-1.47
	c-0.619-0.618-1.109-1.348-1.47-2.191c-0.36-0.842-0.542-1.727-0.542-2.655V56.025h-4.125v-4.591h4.125v-7.427h4.693v7.427h6.497
	v4.591h-6.497v17.945c0,0.688,0.207,1.229,0.619,1.625c0.413,0.395,0.962,0.593,1.65,0.593h2.939L69.049,80.829z"/>
<path d="M82.817,76.188c0.688,0,1.229-0.198,1.626-0.593c0.393-0.396,0.592-0.937,0.592-1.625v-3.713h4.641v3.713
	c0,0.963-0.18,1.857-0.541,2.682c-0.362,0.825-0.851,1.547-1.47,2.165c-0.619,0.619-1.341,1.109-2.166,1.47
	c-0.826,0.362-1.719,0.542-2.682,0.542h-3.197c-0.963,0-1.856-0.18-2.682-0.542c-0.825-0.36-1.547-0.851-2.166-1.47
	c-0.618-0.618-1.109-1.34-1.47-2.165c-0.36-0.824-0.542-1.719-0.542-2.682V57.778c0-0.962,0.181-1.857,0.542-2.683
	c0.361-0.824,0.852-1.547,1.47-2.165c0.619-0.618,1.341-1.109,2.166-1.47c0.825-0.361,1.719-0.541,2.682-0.541h3.197
	c0.963,0,1.856,0.18,2.682,0.541c0.825,0.36,1.547,0.852,2.166,1.47c0.619,0.618,1.108,1.341,1.47,2.165
	c0.361,0.825,0.541,1.721,0.541,2.683v8.767H77.403v7.426c0,0.688,0.198,1.229,0.593,1.625c0.395,0.395,0.936,0.593,1.624,0.593
	H82.817z M85.036,61.904v-4.126c0-0.688-0.199-1.229-0.592-1.625c-0.397-0.394-0.938-0.593-1.626-0.593h-3.197
	c-0.688,0-1.229,0.199-1.624,0.593c-0.396,0.396-0.593,0.938-0.593,1.625v4.126H85.036z"/>
<path d="M106.848,57.983c0-0.721-0.061-1.288-0.18-1.702c-0.121-0.411-0.283-0.618-0.49-0.618c-0.276,0-0.791,0.182-1.547,0.542
	c-0.757,0.361-1.53,0.782-2.321,1.263c-0.928,0.551-1.96,1.171-3.093,1.856v20.989h-4.642V51.435h4.642v3.198
	c0.858-0.688,1.735-1.307,2.628-1.856c0.756-0.48,1.556-0.903,2.399-1.264s1.606-0.542,2.294-0.542c1.375,0,2.544,0.481,3.507,1.445
	c0.962,0.963,1.443,2.131,1.443,3.505v5.156h-4.641V57.983z"/>
<path d="M127.63,57.983c0-0.721-0.061-1.288-0.18-1.702c-0.122-0.411-0.282-0.618-0.491-0.618c-0.274,0-0.79,0.182-1.546,0.542
	c-0.757,0.361-1.529,0.782-2.32,1.263c-0.93,0.551-1.961,1.171-3.095,1.856v20.989h-4.641V51.435h4.641v3.198
	c0.86-0.688,1.734-1.307,2.63-1.856c0.756-0.48,1.556-0.911,2.397-1.29c0.843-0.378,1.607-0.566,2.296-0.566
	c0.688,0,1.332,0.129,1.935,0.386c0.602,0.258,1.125,0.618,1.572,1.083c0.446,0.465,0.8,0.998,1.057,1.6
	c0.259,0.601,0.387,1.247,0.387,1.933v24.393h-4.642V57.983z"/>
<path fill="#646464" d="M138.717,39.059h10.314c1.032,0,2.002,0.181,2.913,0.542c0.91,0.361,1.702,0.85,2.373,1.468
	c0.671,0.62,1.193,1.367,1.572,2.245c0.378,0.877,0.567,1.829,0.567,2.862v9.076c0,1.029-0.189,1.993-0.567,2.886
	c-0.379,0.896-0.901,1.678-1.572,2.348s-1.463,1.204-2.373,1.599c-0.911,0.396-1.881,0.594-2.913,0.594h-5.673v17.636h-4.642V39.059
	z M143.358,43.699v14.336h5.673c0.825,0,1.496-0.257,2.011-0.772c0.516-0.517,0.774-1.186,0.774-2.011v-9.076
	c0-0.791-0.259-1.401-0.774-1.831c-0.515-0.431-1.186-0.646-2.011-0.646H143.358z"/>
<path fill="#646464" d="M173.37,57.983c0-0.721-0.06-1.288-0.18-1.702c-0.121-0.411-0.283-0.618-0.49-0.618
	c-0.275,0-0.792,0.182-1.547,0.542c-0.758,0.361-1.529,0.782-2.32,1.263c-0.929,0.551-1.96,1.171-3.095,1.856v20.989h-4.641V51.435
	h4.641v3.198c0.859-0.688,1.735-1.307,2.63-1.856c0.757-0.48,1.556-0.903,2.398-1.264s1.606-0.542,2.294-0.542
	c1.375,0,2.545,0.481,3.508,1.445c0.961,0.963,1.443,2.131,1.443,3.505v5.156h-4.642V57.983z"/>
<path fill="#646464" d="M191.419,76.188c0.688,0,1.229-0.198,1.624-0.593c0.396-0.396,0.593-0.937,0.593-1.625v-3.713h4.641v3.713
	c0,0.963-0.179,1.857-0.541,2.682c-0.36,0.825-0.851,1.547-1.47,2.165c-0.619,0.619-1.34,1.109-2.164,1.47
	c-0.826,0.362-1.722,0.542-2.683,0.542h-3.197c-0.963,0-1.856-0.18-2.682-0.542c-0.825-0.36-1.547-0.851-2.165-1.47
	c-0.619-0.618-1.109-1.34-1.47-2.165c-0.362-0.824-0.541-1.719-0.541-2.682V57.778c0-0.962,0.179-1.857,0.541-2.683
	c0.36-0.824,0.851-1.547,1.47-2.165c0.618-0.618,1.34-1.109,2.165-1.47c0.825-0.361,1.719-0.541,2.682-0.541h3.197
	c0.961,0,1.856,0.18,2.683,0.541c0.824,0.36,1.545,0.852,2.164,1.47s1.109,1.341,1.47,2.165c0.362,0.825,0.541,1.721,0.541,2.683
	v8.767h-12.271v7.426c0,0.688,0.197,1.229,0.594,1.625c0.395,0.395,0.936,0.593,1.623,0.593H191.419z M193.636,61.904v-4.126
	c0-0.688-0.197-1.229-0.593-1.625c-0.395-0.394-0.937-0.593-1.624-0.593h-3.197c-0.688,0-1.229,0.199-1.623,0.593
	c-0.396,0.396-0.594,0.938-0.594,1.625v4.126H193.636z"/>
<path fill="#646464" d="M206.787,58.81c0,0.275,0.3,0.696,0.901,1.263c0.602,0.567,1.264,1.144,1.985,1.728
	c0.86,0.653,1.806,1.359,2.836,2.114c1.238,0.825,2.338,1.703,3.301,2.631c0.825,0.791,1.574,1.685,2.244,2.681
	c0.669,0.999,1.004,1.994,1.004,2.99v1.755c0,0.929-0.179,1.813-0.539,2.655c-0.363,0.844-0.853,1.573-1.471,2.191
	c-0.618,0.619-1.341,1.109-2.166,1.47c-0.825,0.362-1.719,0.542-2.682,0.542h-3.197c-0.963,0-1.856-0.18-2.682-0.542
	c-0.825-0.36-1.546-0.851-2.166-1.47c-0.618-0.618-1.108-1.348-1.469-2.191c-0.361-0.842-0.542-1.727-0.542-2.655v-4.59h4.642v4.59
	c0,0.688,0.196,1.229,0.593,1.625c0.394,0.395,0.936,0.593,1.624,0.593h3.197c0.688,0,1.228-0.198,1.625-0.593
	c0.394-0.396,0.593-0.937,0.593-1.625v-1.755c0-0.582-0.284-1.192-0.852-1.829c-0.566-0.636-1.194-1.212-1.883-1.729
	c-0.824-0.619-1.735-1.202-2.732-1.753c-1.272-0.791-2.406-1.633-3.403-2.526c-0.859-0.756-1.644-1.615-2.347-2.579
	c-0.706-0.961-1.057-1.96-1.057-2.99v-1.031c0-0.962,0.181-1.857,0.542-2.683c0.36-0.824,0.851-1.547,1.469-2.165
	c0.62-0.618,1.341-1.109,2.166-1.47c0.825-0.361,1.719-0.541,2.682-0.541h3.197c0.963,0,1.856,0.18,2.682,0.541
	c0.825,0.36,1.548,0.852,2.166,1.47s1.107,1.341,1.471,2.165c0.36,0.825,0.539,1.721,0.539,2.683v1.031h-4.64v-1.031
	c0-0.688-0.199-1.229-0.593-1.625c-0.397-0.394-0.938-0.593-1.625-0.593h-3.197c-0.688,0-1.23,0.199-1.624,0.593
	c-0.396,0.396-0.593,0.938-0.593,1.625V58.81z"/>
<path fill="#646464" d="M227.827,58.81c0,0.275,0.299,0.696,0.901,1.263c0.601,0.567,1.264,1.144,1.985,1.728
	c0.859,0.653,1.806,1.359,2.836,2.114c1.238,0.825,2.338,1.703,3.3,2.631c0.825,0.791,1.574,1.685,2.243,2.681
	c0.67,0.999,1.006,1.994,1.006,2.99v1.755c0,0.929-0.181,1.813-0.541,2.655c-0.361,0.844-0.851,1.573-1.469,2.191
	c-0.619,0.619-1.343,1.109-2.168,1.47c-0.824,0.362-1.718,0.542-2.68,0.542h-3.198c-0.963,0-1.855-0.18-2.681-0.542
	c-0.826-0.36-1.547-0.851-2.166-1.47c-0.619-0.618-1.109-1.348-1.47-2.191c-0.361-0.842-0.542-1.727-0.542-2.655v-4.59h4.643v4.59
	c0,0.688,0.196,1.229,0.592,1.625c0.394,0.395,0.936,0.593,1.624,0.593h3.198c0.688,0,1.228-0.198,1.624-0.593
	c0.395-0.396,0.594-0.937,0.594-1.625v-1.755c0-0.582-0.284-1.192-0.852-1.829c-0.568-0.636-1.195-1.212-1.884-1.729
	c-0.824-0.619-1.734-1.202-2.731-1.753c-1.273-0.791-2.407-1.633-3.403-2.526c-0.86-0.756-1.644-1.615-2.347-2.579
	c-0.706-0.961-1.058-1.96-1.058-2.99v-1.031c0-0.962,0.181-1.857,0.542-2.683c0.36-0.824,0.851-1.547,1.47-2.165
	s1.34-1.109,2.166-1.47c0.825-0.361,1.718-0.541,2.681-0.541h3.198c0.962,0,1.855,0.18,2.68,0.541
	c0.825,0.36,1.549,0.852,2.168,1.47c0.618,0.618,1.107,1.341,1.469,2.165c0.36,0.825,0.541,1.721,0.541,2.683v1.031h-4.64v-1.031
	c0-0.688-0.199-1.229-0.594-1.625c-0.396-0.394-0.937-0.593-1.624-0.593h-3.198c-0.688,0-1.23,0.199-1.624,0.593
	c-0.396,0.396-0.592,0.938-0.592,1.625V58.81z"/>
</svg>
